<svg xmlns="http://www.w3.org/2000/svg" xmlns:xlink="http://www.w3.org/1999/xlink" width="50" zoomAndPan="magnify" viewBox="0 0 37.5 37.499999" height="50" preserveAspectRatio="xMidYMid meet" version="1.0"><defs><clipPath id="e5b872ae69"><path d="M 0 0 L 37.007812 0 L 37.007812 37.007812 L 0 37.007812 Z M 0 0 " clip-rule="nonzero"/></clipPath></defs><g clip-path="url(#e5b872ae69)"><path fill="#b4b4b4" d="M 37.003906 18.503906 C 37.003906 21.746094 37.003906 27.890625 32.449219 32.449219 C 27.890625 37.003906 21.746094 37.003906 18.503906 37.003906 C 15.261719 37.003906 9.113281 37.003906 4.558594 32.449219 C 0.00390625 27.890625 0 21.746094 0 18.503906 C 0 15.261719 0 9.113281 4.558594 4.558594 C 9.117188 0.00390625 15.261719 0 18.503906 0 C 21.746094 0 27.890625 0 32.449219 4.558594 C 37.003906 9.117188 37.003906 15.261719 37.003906 18.503906 Z M 37.003906 18.503906 " fill-opacity="1" fill-rule="nonzero"/></g><path fill="#1800ad" d="M 8.28125 22.667969 L 15.632812 9.9375 C 15.777344 9.6875 15.945312 9.453125 16.132812 9.234375 C 16.324219 9.019531 16.535156 8.824219 16.761719 8.648438 C 16.992188 8.46875 17.238281 8.320312 17.496094 8.191406 C 17.753906 8.0625 18.023438 7.960938 18.304688 7.886719 C 18.582031 7.8125 18.867188 7.765625 19.152344 7.746094 C 19.441406 7.726562 19.730469 7.738281 20.015625 7.773438 C 20.304688 7.8125 20.582031 7.878906 20.855469 7.96875 C 21.128906 8.0625 21.390625 8.183594 21.640625 8.328125 C 21.890625 8.472656 22.125 8.636719 22.34375 8.828125 C 22.5625 9.019531 22.757812 9.230469 22.933594 9.457031 C 23.109375 9.6875 23.261719 9.933594 23.386719 10.191406 C 23.515625 10.449219 23.617188 10.71875 23.691406 11 C 23.765625 11.277344 23.8125 11.5625 23.832031 11.851562 C 23.851562 12.136719 23.84375 12.425781 23.804688 12.710938 C 23.765625 13 23.703125 13.277344 23.609375 13.550781 C 23.515625 13.824219 23.398438 14.085938 23.253906 14.339844 L 15.902344 27.070312 C 15.757812 27.320312 15.589844 27.554688 15.398438 27.769531 C 15.210938 27.988281 15 28.183594 14.769531 28.359375 C 14.539062 28.535156 14.296875 28.6875 14.039062 28.816406 C 13.777344 28.941406 13.507812 29.042969 13.230469 29.121094 C 12.953125 29.195312 12.667969 29.242188 12.378906 29.261719 C 12.089844 29.277344 11.804688 29.269531 11.515625 29.230469 C 11.230469 29.195312 10.949219 29.128906 10.675781 29.035156 C 10.402344 28.941406 10.140625 28.824219 9.890625 28.679688 C 9.640625 28.535156 9.40625 28.367188 9.191406 28.175781 C 8.972656 27.988281 8.777344 27.777344 8.601562 27.546875 C 8.425781 27.320312 8.273438 27.074219 8.144531 26.816406 C 8.015625 26.554688 7.914062 26.285156 7.839844 26.007812 C 7.765625 25.730469 7.71875 25.445312 7.699219 25.15625 C 7.679688 24.867188 7.691406 24.582031 7.730469 24.292969 C 7.765625 24.007812 7.832031 23.726562 7.925781 23.453125 C 8.015625 23.179688 8.136719 22.917969 8.28125 22.667969 Z M 22.714844 28.679688 C 22.964844 28.824219 23.226562 28.941406 23.5 29.035156 C 23.773438 29.128906 24.054688 29.195312 24.339844 29.230469 C 24.628906 29.269531 24.914062 29.277344 25.203125 29.261719 C 25.492188 29.242188 25.773438 29.195312 26.054688 29.121094 C 26.332031 29.042969 26.601562 28.945312 26.863281 28.816406 C 27.121094 28.6875 27.363281 28.535156 27.59375 28.359375 C 27.824219 28.183594 28.03125 27.988281 28.222656 27.769531 C 28.414062 27.554688 28.582031 27.320312 28.726562 27.070312 C 28.871094 26.820312 28.988281 26.558594 29.082031 26.285156 C 29.175781 26.011719 29.238281 25.730469 29.277344 25.445312 C 29.316406 25.15625 29.324219 24.871094 29.304688 24.582031 C 29.285156 24.292969 29.238281 24.007812 29.164062 23.730469 C 29.089844 23.453125 28.988281 23.183594 28.863281 22.921875 C 28.734375 22.664062 28.582031 22.417969 28.40625 22.191406 C 28.230469 21.960938 28.035156 21.75 27.816406 21.5625 C 27.597656 21.371094 27.367188 21.203125 27.117188 21.058594 C 26.863281 20.914062 26.601562 20.796875 26.328125 20.703125 C 26.054688 20.609375 25.777344 20.542969 25.488281 20.507812 C 25.203125 20.46875 24.914062 20.460938 24.628906 20.476562 C 24.339844 20.496094 24.054688 20.542969 23.777344 20.617188 C 23.496094 20.691406 23.226562 20.792969 22.96875 20.921875 C 22.710938 21.050781 22.464844 21.203125 22.238281 21.378906 C 22.007812 21.554688 21.796875 21.75 21.605469 21.96875 C 21.417969 22.183594 21.25 22.417969 21.105469 22.667969 C 20.960938 22.917969 20.839844 23.179688 20.75 23.453125 C 20.65625 23.726562 20.589844 24.007812 20.550781 24.292969 C 20.515625 24.582031 20.503906 24.867188 20.523438 25.15625 C 20.542969 25.445312 20.589844 25.730469 20.664062 26.007812 C 20.738281 26.285156 20.839844 26.554688 20.96875 26.816406 C 21.097656 27.074219 21.246094 27.320312 21.425781 27.546875 C 21.601562 27.777344 21.796875 27.988281 22.011719 28.175781 C 22.230469 28.367188 22.464844 28.535156 22.714844 28.679688 Z M 22.714844 28.679688 " fill-opacity="1" fill-rule="nonzero"/></svg>